<svg viewBox="0 0 410 524" xmlns="http://www.w3.org/2000/svg" xmlns:xlink="http://www.w3.org/1999/xlink">
  <g transform="translate(210 286)">
    <mask id="a">
      <use xlink:href="#path0_fill" fill="#fff" transform="translate(-210 -286)"/>
    </mask>
    <g mask="url(#a)">
      <use xlink:href="#path1_stroke_2x" transform="translate(-210 -286)" fill="#333"/>
    </g>
  </g>
  <g transform="translate(210 286)">
    <use xlink:href="#path2_fill" transform="rotate(-180 33 119)" fill="#333"/>
    <mask id="b">
      <use xlink:href="#path2_fill" fill="#fff" transform="rotate(-180 33 119)"/>
    </mask>
    <g mask="url(#b)">
      <use xlink:href="#path3_stroke_2x" transform="rotate(-180 33 119)" fill="#333"/>
    </g>
  </g>
  <defs>
    <path id="path0_fill" d="M410 205c0 113.22-91.78 205-205 205S0 318.22 0 205 91.78 0 205 0s205 91.78 205 205z"/>
    <path id="path1_stroke_2x" d="M390 205c0 102.17-82.83 185-185 185v40c124.26 0 225-100.74 225-225h-40zM205 390c-102.17 0-185-82.83-185-185h-40c0 124.26 100.74 225 225 225v-40zM20 205c0-102.17 82.83-185 185-185v-40C80.74-20-20 80.74-20 205h40zM205 20c102.17 0 185 82.83 185 185h40C430 80.74 329.26-20 205-20v40z"/>
    <path id="path2_fill" d="M71.5 0l61.92 130.5H9.58L71.5 0z"/>
    <path id="path3_stroke_2x" d="M71.5 0l9.03-4.29-9.03-19.04-9.03 19.04L71.5 0zm61.92 130.5v10h15.81l-6.77-14.29-9.04 4.29zm-123.84 0l-9.04-4.29-6.77 14.29h15.8v-10zM62.47 4.29l61.92 130.5 18.07-8.58L80.53-4.29 62.47 4.3zm70.95 116.21H9.58v20h123.84v-20zm-114.8 14.29l61.9-130.5L62.47-4.3.54 126.21l18.07 8.58z"/>
  </defs>
</svg>